<?xml version="1.0" encoding="UTF-8" standalone="no"?>
<svg version="1.1" id="Layer_4" xmlns="http://www.w3.org/2000/svg" xmlns:xlink="http://www.w3.org/1999/xlink" x="0px" y="0px" width="360px" height="360.002px" viewBox="294.5 996.5 360 360.002" enable-background="new 294.5 996.5 360 360.002" xml:space="preserve">
<path d="M438.732,1332.937c8.005-10.139,9.82-18.188,11.146-21.395c4.03-9.756,9.368-16.855,14.348-18.605l0.877-5.02  c-2.188-0.232-4.14-0.977-5.729-2.283c-0.24-0.197-0.471-0.404-0.688-0.623c-6.704-6.703-3.094-22.879,8.415-36.848  c11.882-14.416,27.688-21.023,35.302-14.746c0.231,0.189,0.453,0.395,0.666,0.604c0.842,0.841,1.514,1.832,2.034,2.945l2.775-1.166  c-0.109-0.246-0.229-0.488-0.299-0.75c-1.49-5.607,5.973-12.693,17.651-17.637c1.111-0.471,5.021-2.449,8.154-4.568  c2.849-1.922,4.992-4.022,4.992-4.022c18.737-18.738,17.354-51.148-1.988-75.857l65.146-68.977l1.127-1.126l13.633,13.635  c-1.93,2.479-3.014,4.99-2.521,6.173c0,0,0,0,1.108,1.109c3.467,3.47,9.09,3.469,12.558,0c3.471-3.468,3.471-9.089,0-12.557  c-1.107-1.112-1.107-1.112-1.107-1.112c-1.182-0.492-3.693,0.593-6.174,2.521l-13.635-13.634l15.694-15.696l13.635,13.633  c-1.932,2.48-3.016,4.993-2.521,6.172c0,0,0,0,1.111,1.111c3.467,3.468,9.088,3.468,12.557,0c3.467-3.467,3.467-9.089,0-12.558  c-1.111-1.11-1.111-1.11-1.111-1.11c-1.18-0.494-3.69,0.59-6.174,2.521l-13.633-13.634l10.551-10.55l1.265,1.262l8.188-4.326  l-3.496-3.496l7.142-10.399l-4.334-3.496l-3.494-4.336l-10.4,7.143l-3.496-3.498l-4.328,8.191l1.267,1.262l-2.824,2.824  l-13.633-13.633c1.932-2.48,3.014-4.992,2.521-6.172c0,0,0,0-1.111-1.111c-3.469-3.467-9.09-3.467-12.559,0  c-3.467,3.467-3.467,9.088,0,12.557c1.113,1.111,1.113,1.111,1.113,1.111c1.178,0.492,3.689-0.59,6.172-2.521l13.633,13.633  l-15.694,15.695l-13.634-13.634c1.932-2.479,3.014-4.994,2.521-6.174c0,0,0,0-1.111-1.109c-3.467-3.469-9.09-3.469-12.557,0  c-3.469,3.468-3.469,9.091,0,12.558c1.108,1.11,1.108,1.11,1.108,1.11c1.181,0.492,3.691-0.59,6.173-2.521l13.635,13.634  l-8.854,8.854h-0.002l-69.259,65.415c-24.4-17.739-55.457-18.511-73.644-0.324c0,0-2.103,2.146-4.023,4.99  c-2.119,3.136-4.1,7.044-4.568,8.15c-4.939,11.685-12.026,19.146-17.635,17.656c-0.261-0.068-0.503-0.188-0.749-0.299l-1.167,2.776  c1.113,0.521,2.104,1.191,2.946,2.033c0.211,0.211,0.412,0.437,0.604,0.668c6.276,7.611-0.331,23.418-14.747,35.299  c-13.967,11.511-30.144,15.121-36.847,8.416c-0.218-0.219-0.426-0.444-0.624-0.688c-1.311-1.59-2.05-3.539-2.282-5.729l-5.021,0.877  c-1.75,4.979-8.852,10.314-18.605,14.349c-3.206,1.326-11.256,3.145-21.395,11.146c-9.177,7.244-17.868,17.869-20.931,26.938  c-7.942,23.537,2.334,56.529,27.854,82.047c25.519,25.52,58.511,35.799,82.048,27.854  C420.864,1350.806,431.488,1342.114,438.732,1332.937z M405.75,1256.032l118.604-120.42c0.418,0.532,0.829,1.069,1.217,1.578  l-117.112,121.549L405.75,1256.032z M395.09,1245.372l121.348-116.918c0.564,0.395,1.177,0.83,1.785,1.27l-120.297,118.484  L395.09,1245.372z M333.406,1313.552c-18.618-20.957-27.169-47.395-20.89-66c2.195-6.504,9.292-15.436,17.256-21.723  c6.841-5.4,12.326-7.307,15.956-8.564c0.979-0.338,1.902-0.66,2.774-1.02c5.286-2.187,11.389-5.299,16.354-9.463  c11.617,8.949,32.033,5.229,49.876-9.476c8.354-6.885,14.87-15.258,18.349-23.577c2.854-6.839,3.54-13.459,2.104-19.162  c5.111-4.168,9.747-10.828,13.479-19.644c0.354-0.813,1.985-3.971,3.545-6.276c1.199-1.774,2.555-3.223,2.728-3.403  c13.843-13.768,38.41-13.229,58.627,1.225l-120.894,116.479l-1.375-1.375l-1.597,1.596c-6.068,14.887-16.633,30.723-30.988,45.08  L333.406,1313.552z M400.348,1250.63l120.625-118.807c0.248,0.205,0.472,0.397,0.644,0.563c0.158,0.154,0.348,0.354,0.544,0.57  l-118.832,120.651L400.348,1250.63z M408.211,1343.247c-19.155,6.467-46.612-2.791-67.842-22.57l25.384-25.383  c14.355-14.357,30.191-24.92,45.081-30.99l1.594-1.594l-1.547-1.547l116.763-121.189c15.896,20.388,17.136,46.502,2.886,60.851  c-0.24,0.229-1.668,1.557-3.414,2.733c-2.31,1.563-5.465,3.188-6.244,3.533c-8.832,3.736-15.503,8.379-19.676,13.49  c-5.705-1.438-12.324-0.752-19.163,2.104c-8.317,3.479-16.692,9.992-23.577,18.353c-14.702,17.842-18.423,38.256-9.474,49.873  c-4.163,4.965-7.276,11.066-9.463,16.354c-0.359,0.873-0.681,1.795-1.021,2.774c-1.259,3.627-3.161,9.111-8.563,15.955  C423.647,1333.956,414.715,1341.052,408.211,1343.247z"/>
</svg>
