<?xml version="1.0" standalone="no"?>
<!DOCTYPE svg PUBLIC "-//W3C//DTD SVG 20010904//EN"
 "http://www.w3.org/TR/2001/REC-SVG-20010904/DTD/svg10.dtd">
<svg version="1.0" xmlns="http://www.w3.org/2000/svg"
 width="700.000000pt" height="700.000000pt" viewBox="0 0 700.000000 700.000000"
 preserveAspectRatio="xMidYMid meet">
<metadata>
Created by potrace 1.11, written by Peter Selinger 2001-2013
</metadata>
<g transform="translate(0.000000,700.000000) scale(0.100000,-0.100000)"
fill="#000000" stroke="none">
<path d="M5938 6984 c-110 -47 -131 -218 -35 -288 l28 -21 52 28 52 27 129
-130 c71 -72 127 -132 125 -135 -2 -2 -70 -71 -151 -152 l-148 -149 -130 131
-131 132 25 47 c27 50 25 69 -8 100 -109 98 -286 22 -286 -123 0 -51 15 -89
48 -123 32 -34 45 -35 101 -2 l45 25 127 -128 c71 -70 129 -131 129 -134 0 -6
-223 -228 -305 -304 -22 -20 -74 -69 -115 -108 -42 -40 -150 -142 -240 -227
-90 -85 -200 -189 -245 -231 -44 -42 -98 -93 -120 -114 -22 -20 -105 -99 -185
-174 -262 -248 -292 -276 -302 -280 -5 -1 -26 8 -46 21 -111 74 -159 99 -269
144 -80 32 -195 64 -283 79 -61 11 -263 14 -315 5 -94 -16 -110 -19 -175 -41
-185 -60 -341 -177 -436 -325 -18 -28 -58 -103 -90 -167 -104 -211 -195 -306
-300 -315 -43 -4 -53 -8 -58 -25 -4 -15 5 -29 33 -54 232 -198 -141 -750 -611
-907 -149 -49 -299 -34 -364 37 -33 35 -54 77 -54 107 0 16 -4 17 -30 10 -35
-10 -35 -10 -55 -10 -8 0 -21 -13 -30 -30 -49 -95 -210 -201 -430 -282 -177
-65 -313 -155 -465 -308 -193 -193 -283 -356 -315 -568 -67 -445 154 -997 566
-1412 109 -110 146 -142 249 -221 266 -203 562 -333 855 -376 64 -10 284 -10
351 0 189 26 380 134 564 319 159 160 234 282 329 533 59 154 179 325 251 355
23 9 31 20 36 49 10 61 10 64 -7 66 -36 6 -91 39 -118 72 -35 43 -47 81 -50
164 -6 179 102 406 287 601 170 179 367 281 510 264 68 -8 102 -26 141 -73 27
-33 33 -35 54 -26 19 9 23 17 20 38 -3 14 2 45 11 68 33 85 141 171 326 260
171 82 257 148 344 267 128 174 184 371 172 615 -10 239 -88 465 -231 675 -31
45 -55 86 -53 90 2 5 64 73 138 151 74 78 142 150 151 160 8 10 84 90 169 179
85 89 161 170 171 181 9 10 86 92 170 181 85 90 194 206 244 258 49 52 123
130 164 172 l75 78 129 -131 130 -130 -21 -43 c-27 -52 -28 -84 -4 -103 94
-74 206 -63 266 27 43 65 38 144 -13 209 -29 37 -52 39 -107 7 l-42 -23 -127
127 c-71 70 -128 131 -127 136 0 5 67 75 148 156 l148 148 132 -132 131 -132
-23 -38 c-13 -21 -24 -49 -24 -62 0 -46 96 -103 157 -93 144 24 203 170 115
285 -23 30 -30 33 -59 29 -18 -3 -46 -15 -61 -26 l-28 -20 -133 133 -132 132
102 101 c83 84 104 100 118 91 13 -8 33 -1 86 28 39 20 72 39 74 41 3 2 -10
18 -28 37 l-32 33 57 84 c31 46 62 90 69 98 11 11 -1 27 -66 92 l-79 79 -94
-65 c-52 -36 -97 -65 -102 -65 -4 0 -22 14 -39 30 l-31 30 -42 -78 c-32 -60
-39 -81 -29 -91 9 -9 5 -18 -16 -38 l-27 -28 -131 131 -130 130 26 51 c21 41
25 55 16 71 -30 56 -144 86 -213 56z m-2118 -2316 c138 -29 265 -82 388 -160
l53 -34 -192 -185 c-105 -101 -217 -208 -248 -238 -31 -30 -155 -150 -276
-266 -121 -117 -245 -236 -275 -265 -30 -29 -158 -152 -285 -275 -126 -122
-251 -242 -276 -266 -26 -24 -147 -141 -269 -259 -123 -118 -244 -235 -269
-259 -25 -24 -94 -91 -153 -149 -90 -87 -110 -103 -122 -93 -8 7 -20 10 -25 6
-6 -3 -35 -58 -65 -121 -161 -337 -300 -517 -754 -973 l-293 -295 -31 34
c-292 330 -465 816 -404 1132 28 143 63 218 163 340 142 174 324 306 503 363
97 31 270 121 342 178 l37 29 31 -22 c86 -61 287 -88 425 -55 338 79 672 340
838 655 61 116 81 200 82 335 l1 110 46 47 c67 67 117 146 199 309 61 122 83
154 138 209 96 95 222 158 366 180 82 13 234 8 325 -12z m517 -249 c9 -9 -2
-25 -43 -64 -30 -29 -289 -284 -577 -568 -287 -283 -592 -584 -677 -667 -85
-84 -299 -294 -476 -468 -176 -175 -373 -368 -437 -431 l-116 -114 -28 27 -27
27 84 81 c74 70 473 455 610 588 74 72 480 463 535 515 43 41 378 364 545 525
31 30 151 146 266 256 357 344 321 313 341 293z m83 -70 c0 -6 -120 -131 -267
-279 -146 -148 -339 -343 -427 -434 -151 -154 -778 -790 -1356 -1376 l-255
-259 -29 28 -28 28 93 93 c260 255 1191 1173 1468 1446 666 656 786 772 793
768 4 -3 8 -10 8 -15z m64 -75 c4 -10 -15 -36 -57 -78 -72 -73 -410 -424 -487
-506 -28 -30 -113 -118 -188 -195 -76 -78 -236 -244 -357 -370 -121 -125 -249
-258 -285 -295 -98 -102 -458 -476 -531 -552 -35 -36 -131 -136 -213 -221
l-148 -155 -24 21 c-13 11 -24 25 -24 30 0 6 112 123 249 261 137 138 328 331
423 428 95 97 394 401 664 675 270 274 596 605 724 736 128 130 237 237 241
237 4 0 10 -7 13 -16z m181 -279 c82 -165 109 -275 109 -455 1 -162 -12 -228
-66 -340 -72 -150 -146 -216 -354 -316 -121 -59 -224 -127 -288 -192 -46 -47
-50 -49 -88 -42 -142 26 -334 -29 -511 -147 -105 -70 -347 -315 -347 -351 0
-6 -4 -12 -8 -14 -12 -5 -77 -115 -112 -191 -65 -142 -96 -286 -87 -409 7 -88
20 -134 58 -210 l29 -58 -43 -58 c-51 -69 -123 -213 -166 -331 -57 -157 -135
-276 -266 -405 -138 -137 -275 -219 -405 -243 -47 -9 -263 -10 -325 -1 -136
19 -240 52 -415 130 -117 52 -342 201 -430 285 -19 18 -38 33 -42 33 -28 0 26
60 300 330 351 348 337 336 497 456 179 135 355 241 515 309 63 27 74 39 58
64 -11 18 -3 29 84 118 53 54 114 116 135 139 21 22 144 150 273 284 129 134
253 262 275 285 22 23 142 148 266 276 124 129 242 251 261 272 20 20 132 137
249 259 118 121 232 240 254 263 22 23 134 139 249 258 l209 217 39 -53 c21
-28 63 -101 93 -162z"/>
</g>
</svg>
